<svg xmlns="http://www.w3.org/2000/svg" viewBox="0 0 31.137 31.142">
  <path id="Forma_1" data-name="Forma 1" d="M918.008,1078.014a5.838,5.838,0,0,1-5.838-5.84V1058.7a5.839,5.839,0,0,1,5.838-5.84h7.7l-3.594,3.595h-4.107a2.248,2.248,0,0,0-2.245,2.245v13.475a2.248,2.248,0,0,0,2.245,2.247h13.473a2.247,2.247,0,0,0,2.245-2.247v-4.031l3.593-3.6v7.627a5.836,5.836,0,0,1-5.837,5.84Zm8.14-11.026-2.885-2.887a3.505,3.505,0,0,1,0-4.96l6.61-6.61-3.857-3.857c-1.192-1.191-1.348-1.8.91-1.8h12.286c4.123,0,4.093-.023,4.1,4.095v12.286c0,2.258-.487,2.227-1.8.905l-3.784-3.784-6.611,6.613a3.508,3.508,0,0,1-4.959,0Z" transform="translate(-912.17 -1046.872)"/>
</svg>
