<svg xmlns="http://www.w3.org/2000/svg" viewBox="0 0 32.765 31.192">
  <path id="Forma_1_copy" data-name="Forma 1 copy" d="M568.745,1048.539a1.664,1.664,0,0,0,.186-.366l-.068-.061-.358.148c-.108.044-.239.1-.39.154a4.073,4.073,0,0,1-.484.162,1.554,1.554,0,0,1-.262.062c-.045,0-.089.02-.133.026s-.089,0-.133.011a2.831,2.831,0,0,1-.525,0c-.083-.033-.177-.042-.268-.08a1.852,1.852,0,0,1-.27-.141c-.041-.027-.083-.057-.129-.087a.508.508,0,0,1-.148-.1l-.319-.268.008.013,0,0-.006-.006-.01-.009-.021-.018-.042-.038-.084-.073-.158-.151c-.1-.1-.224-.182-.325-.281s-.231-.166-.336-.264-.245-.157-.372-.243a1.58,1.58,0,0,0-.859-.18c-.07.008-.138.019-.205.031a2.567,2.567,0,0,0-.515.22,2.218,2.218,0,0,0-.486.38,2.176,2.176,0,0,0-.29.366,1.651,1.651,0,0,0-.142.269c-.025.066-.037.1-.037.1l.067.062s.144-.048.364-.141l.388-.157c.144-.058.3-.124.471-.181.084-.029.17-.062.257-.085.044-.01.088-.028.132-.04a1.2,1.2,0,0,0,.133-.036,2.887,2.887,0,0,1,.6-.141,1.359,1.359,0,0,1,.343.057.951.951,0,0,1,.313.191,1.353,1.353,0,0,1,.244.29l.087.177.04.087.02.045.01.021,0,.011,0,.006,0,0c-.009-.012.013.02.012.019l.172.38a2.025,2.025,0,0,0,.291.384,2.345,2.345,0,0,0,.379.312,2.8,2.8,0,0,0,.447.217,1.78,1.78,0,0,0,.931.032,1.543,1.543,0,0,0,.391-.134,2.128,2.128,0,0,0,.324-.177,2.574,2.574,0,0,0,.474-.4A2.39,2.39,0,0,0,568.745,1048.539ZM555,1070.1v7.827h32.765V1070.1h-2.232v-8.791l-6.289-4.423v4.423l-6.289-4.423v4.423l-6.289-4.423v8.692H564.5l-1.179-15.374h-3.6l-1.032,15.374h-2.42v4.523H555Zm22.494-3.38h4.945v4.575h-4.945Zm-8.52,0h4.945v4.575h-4.945Zm-8.628,0h4.945v4.575h-4.945Z" transform="translate(-555 -1046.732)"/>
</svg>
