<svg xmlns="http://www.w3.org/2000/svg" viewBox="0 0 15.239 21.677">
  <defs>
    <style>
      .cls-1 {
        fill: #898989;
      }
    </style>
  </defs>
  <path id="Forma_1" data-name="Forma 1" class="cls-1" d="M124.595,13987.533a.637.637,0,0,1-.541-.3l-6.048-9.748a7.619,7.619,0,1,1,13.027-.1l-5.894,9.84a.634.634,0,0,1-.541.313Zm-6.466-14.056a6.361,6.361,0,0,0,.955,3.339l5.5,8.86,5.36-8.948a6.356,6.356,0,1,0-11.816-3.251Zm2.549,0a3.811,3.811,0,1,1,3.812,3.809A3.819,3.819,0,0,1,120.677,13973.478Zm1.264,0a2.545,2.545,0,1,0,2.549-2.549A2.551,2.551,0,0,0,121.941,13973.478Z" transform="translate(-116.869 -13965.856)"/>
</svg>
