<svg
   xmlns:dc="http://purl.org/dc/elements/1.1/"
   xmlns:cc="http://creativecommons.org/ns#"
   xmlns:rdf="http://www.w3.org/1999/02/22-rdf-syntax-ns#"
   xmlns:svg="http://www.w3.org/2000/svg"
   xmlns="http://www.w3.org/2000/svg"
   xmlns:sodipodi="http://sodipodi.sourceforge.net/DTD/sodipodi-0.dtd"
   xmlns:inkscape="http://www.inkscape.org/namespaces/inkscape"
   width="210mm"
   height="297mm"
   viewBox="0 0 210 297"
   version="1.1"
   id="svg8"
   sodipodi:docname="donut.svg"
   inkscape:version="0.92.3 (2405546, 2018-03-11)">

   <style>
     .small { font: 5px sans-serif; }
    .heavy { font: bold 11px sans-serif; }
   </style>
  <sodipodi:namedview
     id="base"
     pagecolor="#ffffff"
     bordercolor="#666666"
     borderopacity="1.0"
     inkscape:pageopacity="0.0"
     inkscape:pageshadow="2"
     inkscape:zoom="1.4142136"
     inkscape:cx="372.96697"
     inkscape:cy="582.28752"
     inkscape:document-units="mm"
     inkscape:current-layer="layer1-8"
     showgrid="false"
     inkscape:window-width="1920"
     inkscape:window-height="1001"
     inkscape:window-x="-9"
     inkscape:window-y="-9"
     inkscape:window-maximized="1" />
  <metadata
     id="metadata5">
    <rdf:RDF>
      <cc:Work
         rdf:about="">
        <dc:format>image/svg+xml</dc:format>
        <dc:type
           rdf:resource="http://purl.org/dc/dcmitype/StillImage" />
        <dc:title></dc:title>
      </cc:Work>
    </rdf:RDF>
  </metadata>
  <g
     inkscape:label="Layer 1"
     inkscape:groupmode="layer"
     id="layer1">
    <g
       id="layer1-8"
       inkscape:label="Layer 1"
       transform="translate(-5.8453921,37.36427)">
      <path
         inkscape:connector-curvature="0"
         id="path3732"
         d="M 109.0372,64.934649 A 54.454547,57.133183 0 0 0 54.582459,122.0678 54.454547,57.133183 0 0 0 109.0372,179.20095 54.454547,57.133183 0 0 0 163.49158,122.0678 54.454547,57.133183 0 0 0 109.0372,64.934649 Z m 0.39517,0.529683 c 13.72514,0.05805 27.33577,5.820005 37.27911,16.093175 8.19642,8.31131 13.81235,19.592783 15.67413,31.600633 0.66478,5.02287 0.50758,10.18279 0.29225,15.25872 -1.09152,10.63929 -5.2713,20.93575 -11.61791,29.14055 -9.71729,12.72137 -24.60357,20.60372 -39.8119,20.99266 -6.97421,0.48206 -14.015219,-0.77987 -20.591309,-3.27307 -13.42053,-5.01477 -24.879784,-15.99601 -30.837002,-29.98338 -2.912327,-6.86246 -4.680524,-14.38693 -4.692713,-21.94671 -0.513153,-14.06704 4.584206,-28.074425 13.258547,-38.492887 9.960828,-12.119979 24.816628,-19.191789 39.718147,-19.377372 0.44286,-0.01004 0.88588,-0.01419 1.32865,-0.01233 z"
         style="stroke-width:0.19531383" />
      <path
         inkscape:connector-curvature="0"
         id="path3789"
         d="m 56.933593,137.56644 -5.478662,1.29821 h 0.06941 0.06903 z"
         style="fill:none;stroke:#000000;stroke-width:0.59871286;stroke-linecap:round;stroke-linejoin:miter;stroke-miterlimit:4;stroke-dasharray:none;stroke-opacity:1" />
      <path
         inkscape:connector-curvature="0"
         id="path3792"
         d="m 62.135276,83.77231 4.022507,3.244963 0.06935,0.07211"
         style="fill:none;stroke:#000000;stroke-width:0.59871292;stroke-linecap:round;stroke-linejoin:miter;stroke-miterlimit:4;stroke-dasharray:none;stroke-opacity:1" />
      <path
         inkscape:connector-curvature="0"
         id="path3794"
         d="m 108.90055,59.446237 c 0.13665,5.488412 0.13665,5.488412 0.13665,5.488412 v 0"
         style="fill:none;stroke:#000000;stroke-width:0.59871292;stroke-linecap:round;stroke-linejoin:miter;stroke-miterlimit:4;stroke-dasharray:none;stroke-opacity:1" />
      <path
         inkscape:connector-curvature="0"
         id="path3796"
         d="m 156.94162,83.77231 c -4.36928,4.110286 -4.43863,4.110286 -4.43863,4.110286"
         style="fill:none;stroke:#000000;stroke-width:0.59871292;stroke-linecap:round;stroke-linejoin:miter;stroke-miterlimit:4;stroke-dasharray:none;stroke-opacity:1" />
      <path
         inkscape:connector-curvature="0"
         id="path3798"
         d="m 167.2818,138.71834 c -5.96441,-1.65853 -5.89505,-1.65853 -5.89505,-1.65853"
         style="fill:none;stroke:#000000;stroke-width:0.59871292;stroke-linecap:round;stroke-linejoin:miter;stroke-miterlimit:4;stroke-dasharray:none;stroke-opacity:1" />
      <path
         inkscape:connector-curvature="0"
         id="path3800"
         d="m 136.2916,177.91229 c -2.77415,-5.04772 -2.77415,-5.04772 -2.77415,-5.04772"
         style="fill:none;stroke:#000000;stroke-width:0.59871292;stroke-linecap:round;stroke-linejoin:miter;stroke-miterlimit:4;stroke-dasharray:none;stroke-opacity:1" />
      <path
         inkscape:connector-curvature="0"
         id="path3802"
         d="m 83.929041,172.61181 -2.45203,5.30287 z"
         style="fill:none;stroke:#000000;stroke-width:0.59871286;stroke-linecap:round;stroke-linejoin:miter;stroke-miterlimit:4;stroke-dasharray:none;stroke-opacity:1" />
      <path
         inkscape:connector-curvature="0"
         id="path4636"
         d="m 104.7683,176.53887 c -8.231839,-0.85781 -15.199479,-3.16003 -21.996899,-7.26812 -5.88741,-3.5581 -11.5551,-8.90036 -15.736044,-14.83245 -4.66937,-6.6251 -8.097316,-15.01908 -9.376962,-22.96127 -0.712017,-4.4192 -0.948655,-10.65487 -0.558926,-14.72842 1.074911,-11.23527 5.317219,-21.668417 12.342445,-30.353893 1.530637,-1.892363 5.072297,-5.474969 7.021077,-7.102238 8.05722,-6.727946 17.32818,-10.665988 27.666019,-11.751743 2.37914,-0.249877 7.87113,-0.206599 10.40328,0.08198 5.98162,0.681689 11.74175,2.419397 17.15544,5.175429 5.55524,2.828094 9.771,6.003896 14.26961,10.749527 8.24122,8.693748 13.14861,19.248828 14.75877,31.743948 0.34397,2.66915 0.39406,10.33292 0.0836,12.78911 -0.82268,6.50857 -2.23038,11.72796 -4.63757,17.19492 -1.51831,3.44821 -4.11388,7.79735 -6.59732,11.05444 -1.76054,2.30896 -5.69395,6.43882 -7.84978,8.24178 -8.13448,6.80301 -17.60705,10.8354 -27.97707,11.90959 -1.46052,0.15129 -7.68634,0.19114 -8.96966,0.0573 z m 8.79317,-13.18676 c 9.00709,-0.92524 17.6577,-5.30607 24.22361,-12.26731 5.84673,-6.19873 9.54206,-13.91609 10.82137,-22.59936 0.40344,-2.73843 0.48175,-8.42786 0.15039,-10.9274 -1.49378,-11.26834 -6.82325,-20.849248 -15.40398,-27.692123 -5.3084,-4.2333 -11.88161,-7.027223 -19.09719,-8.117222 -1.83856,-0.277734 -8.34636,-0.277397 -10.18156,4.53e-4 -8.980479,1.360008 -16.472329,5.118393 -22.652289,11.363816 -5.13528,5.189668 -8.69084,11.312646 -10.58122,18.221756 -3.903779,14.26785 -0.0298,29.66719 10.10147,40.15374 8.64084,8.94388 20.181569,13.14121 32.619399,11.86357 z"
         style="fill:#0b2822;stroke-width:0.4778254;stroke-linecap:round;stroke-linejoin:miter;stroke-miterlimit:4;stroke-dasharray:none" />
      <path
         inkscape:connector-curvature="0"
         id="path4692"
         d="m 125.17089,84.853221 c -1.75555,-0.85293 -4.96603,-1.92426 -7.63744,-2.548592 -7.30842,-1.708043 -17.20703,-0.7667 -23.795679,2.262935 -0.58717,0.269993 -1.14458,0.490897 -1.23869,0.490897 -0.0941,0 -1.49778,-2.757585 -3.11924,-6.127966 l -2.94812,-6.127967 1.43625,-0.680533 c 3.64838,-1.728709 8.20721,-3.159338 12.795589,-4.015446 3.32297,-0.620007 10.6732,-0.772188 14.41922,-0.298538 5.43832,0.687625 10.61916,2.226232 15.81442,4.696566 l 1.59406,0.757972 -2.86861,6.101914 c -1.57774,3.356054 -2.95711,6.094022 -3.06527,6.084375 -0.10816,-0.0097 -0.73208,-0.277675 -1.38649,-0.595617 z"
         style="fill:#0b2817;stroke-width:0.04913929;stroke-linecap:round;stroke-linejoin:miter;stroke-miterlimit:4;stroke-dasharray:none" />
      <path
         inkscape:connector-curvature="0"
         id="path4694"
         d="m 125.28183,84.820312 c -2.35615,-1.116231 -7.06623,-2.541115 -10.10232,-3.056134 -2.37656,-0.403142 -9.2665,-0.346894 -12.1412,0.09912 -2.91527,0.452306 -6.158639,1.321489 -8.454409,2.265677 -0.97026,0.39904 -1.86664,0.725529 -1.99195,0.725529 -0.19261,0 -5.95395,-11.540748 -5.95395,-11.926567 0,-0.432228 5.75107,-2.659803 9.5014,-3.680198 3.74505,-1.018957 5.666599,-1.316353 9.722439,-1.504725 7.59685,-0.352836 12.98935,0.354531 19.33354,2.536107 2.25457,0.775282 6.16703,2.428763 6.91849,2.923892 0.20029,0.131968 -0.39212,1.535834 -2.55872,6.063509 -1.60762,3.359571 -2.9421,5.909019 -3.10497,5.931883 -0.15709,0.02205 -0.68285,-0.148088 -1.16835,-0.378093 z"
         style="fill:#0b2817;stroke-width:0.04913929;stroke-linecap:round;stroke-linejoin:miter;stroke-miterlimit:4;stroke-dasharray:none" />
      <path
         inkscape:connector-curvature="0"
         id="path4698"
         d="M 147.68154,111.78392 C 145.03242,101.49268 138.2773,92.414958 129.17218,86.91049 l -2.09257,-1.052448 2.83596,-6.259019 c 1.51595,-3.345734 2.90603,-6.123295 2.93393,-6.152301 0.1292,-0.134338 5.21586,3.01113 6.75208,4.296362 8.87386,6.945796 15.49491,16.356966 18.7813,26.762346 0.91344,2.89212 1.77545,6.49476 1.61707,6.65943 -0.0951,0.0989 -11.46975,2.66147 -11.79233,2.66147 -0.0685,0 -0.29604,-1.14877 -0.52608,-2.04241 z"
         style="fill:#37483e;stroke-width:0.04913929;stroke-linecap:round;stroke-linejoin:miter;stroke-miterlimit:4;stroke-dasharray:none"
         sodipodi:nodetypes="cccsccccsc" />
      <path
         inkscape:connector-curvature="0"
         id="path4700"
         d="m 125.19915,84.911263 c -5.66108,-2.443319 -11.60139,-3.65896 -18.2185,-3.203692 -4.57838,0.314998 -10.455957,1.830908 -14.980603,3.647263 -0.25376,0.101871 -14.537404,0.925635 -2.363578,-4.8802 -1.99689,-3.77522 -3.748111,-7.380948 -3.581751,-7.539673 0.66298,-0.632572 8.004119,-3.403072 11.293919,-4.232007 8.304093,-2.092385 18.700633,-1.589119 26.541043,0.876775 4.58488,1.441994 8.83227,3.557667 8.83227,4.111915 0,0.337939 -2.47109,5.851594 -4.31847,9.416486 -1.34793,2.601094 -1.32705,2.613371 -3.20433,1.803133 z"
         style="fill:#0b2817;stroke-width:0.04913929;stroke-linecap:round;stroke-linejoin:miter;stroke-miterlimit:4;stroke-dasharray:none"
         sodipodi:nodetypes="cscccssscc" />
      <path
         inkscape:connector-curvature="0"
         id="path4702"
         d="m 144.44632,153.05973 c -2.52479,-1.91809 -4.79202,-3.8692 -4.87276,-3.94769 -0.0807,-0.0785 0.76103,-0.85932 1.41633,-1.74794 4.2751,-5.79728 7.06201,-12.97258 7.81821,-20.12914 0.41856,-3.96118 0.214,-9.33898 -0.48441,-12.73493 -0.10705,-0.52055 -0.0631,-0.66293 0.23175,-0.75097 1.05878,-0.31613 11.2943,-2.60668 11.35697,-2.54151 0.21919,0.2279 0.72523,4.15168 0.90202,6.9942 0.74349,11.95379 -1.94008,23.1439 -7.92385,33.0413 -1.23187,2.03757 -2.93113,4.70762 -3.3737,5.1496 -0.0416,0.0416 -0.0544,0.0896 -0.0817,0.0656 -0.0541,-0.0476 -2.46409,-1.48045 -4.98887,-3.39853 z"
         style="fill:#536c5d;stroke-width:0.04913929;stroke-linecap:round;stroke-linejoin:miter;stroke-miterlimit:4;stroke-dasharray:none"
         sodipodi:nodetypes="sccsccccssss" />
      <path
         inkscape:connector-curvature="0"
         id="path4704"
         d="m 108.21578,170.03618 v -6.39577 l 3.08954,-0.11677 c 4.14545,-0.15668 9.91973,-1.30434 15.1128,-3.95863 4.27524,-2.18517 7.65965,-4.68069 11.16108,-8.33314 l 1.96398,-2.13583 4.83922,3.89847 5.079,3.47015 -1.68768,2.00068 c -3.3218,3.78251 -6.21093,6.55283 -9.95098,9.07308 -7.9949,5.57451 -18.09989,8.99114 -26.71991,9.05723 l -2.88705,0.0221 z"
         style="fill:#6f917c;stroke-width:0.04913929;stroke-linecap:round;stroke-linejoin:miter;stroke-miterlimit:4;stroke-dasharray:none"
         sodipodi:nodetypes="ccssccccccscc" />
      <path
         inkscape:connector-curvature="0"
         id="path4706"
         d="m 102.4054,176.34718 c -9.218013,-1.46985 -17.371785,-4.86738 -24.398675,-10.36734 -2.71137,-2.1222 -6.748558,-5.85882 -8.767669,-8.60521 -1.080806,-1.47011 -1.741819,-2.09981 -1.746779,-2.42938 -0.0012,-0.0776 0.0759,-0.15256 0.144561,-0.20192 0.19807,-0.20098 2.374641,-1.97195 4.802141,-3.94684 l 4.56631,-4.06933 1.516843,2.03428 c 6.8925,8.33216 15.76206,13.21506 26.032298,14.50589 0.91423,0.1149 2.00437,0.24621 2.46563,0.25616 l 1.58805,0.0343 -0.19188,6.54527 -0.20045,6.51473 -1.65007,-0.003 c -1.10587,-0.0109 -3.18931,-0.11315 -4.16031,-0.26798 z"
         style="fill:#93ac9d;stroke-width:0.04913929;stroke-linecap:round;stroke-linejoin:miter;stroke-miterlimit:4;stroke-dasharray:none"
         sodipodi:nodetypes="ccsscccccsccccc" />
      <path
         inkscape:connector-curvature="0"
         id="path4710"
         d="m 68.628984,113.2941 c -2.007336,-0.62551 -10.597383,-2.87672 -10.480329,-3.46701 0.03321,-0.1675 0.962727,-3.97781 1.808889,-6.58466 1.765031,-5.437679 5.75566,-12.343665 9.465045,-16.834614 3.056614,-3.700647 7.338213,-7.787741 11.289092,-10.357772 1.97533,-1.284945 5.207064,-3.229357 5.323574,-3.098322 0.15618,0.175637 5.898526,12.354502 5.892776,12.494584 -0.004,0.08488 -1.075344,0.586637 -2.266394,1.259379 -3.08139,1.740452 -5.89699,4.088543 -8.728956,6.893224 -5.1603,5.383233 -8.594859,11.817801 -10.165218,18.119821 l -0.459089,1.84238 z"
         style="fill:#b7c8b7;stroke-width:0.04913929;stroke-linecap:round;stroke-linejoin:miter;stroke-miterlimit:4;stroke-dasharray:none"
         sodipodi:nodetypes="cssssccccscc" />
      <path
         inkscape:connector-curvature="0"
         id="path4712"
         d="m 65.919802,152.78433 c -0.514468,-0.77375 -1.1252,-1.76869 -1.705651,-2.82721 -1.382238,-2.52067 -2.912701,-5.48855 -3.739452,-7.89511 -1.507571,-4.38833 -2.874734,-8.93387 -3.416234,-13.72545 -0.573197,-5.07206 -0.255405,-10.40273 0.5267,-15.47766 0.224743,-1.4583 0.558907,-2.87495 0.583786,-2.90267 0.02488,-0.0277 2.637197,0.83442 5.689659,1.8437 3.052464,1.00928 6.34241,1.65386 6.41583,1.78299 0.02558,0.045 -0.05937,0.24175 -0.379856,2.09087 -0.386442,2.09098 -0.597702,7.26289 -0.397415,10.12838 0.466606,6.67564 2.654833,13.22717 6.197323,18.98777 l 1.310797,1.93722 -0.620978,0.71202 c -0.40292,0.45241 -8.258237,7.1259 -8.820324,7.47616 -0.03787,0.0236 0.02178,0.13913 -0.05571,0.0844 -0.209698,-0.14801 -0.679657,-0.70807 -1.541228,-2.14158 z"
         style="fill:#93aca7;stroke-width:0.0491393;stroke-linecap:round;stroke-linejoin:miter;stroke-miterlimit:4;stroke-dasharray:none"
         sodipodi:nodetypes="csssccsscsccccscc" />

<text x="98" y="110" class="heavy">THE</text>
<text x="83" y="125" class="heavy">FURMARK</text>
<text x="83" y="140" class="heavy">PROGRAM</text>


<text x="18" y="60" class="small">Dressers and Dyers</text>
<text x="18" y="65" class="small">Certificate covering</text>
<text x="18" y="70" class="small">dressers and dyers of</text>
<text x="18" y="75" class="small">fur across the globe</text>

<text x="10" y="145" class="small">Welfur European</text>
<text x="10" y="150" class="small">Certification Program</text>
<text x="10" y="155" class="small">For Fox, Mink</text>
<text x="10" y="160" class="small">and Finnraccoon</text>

<text x="85" y="50" class="small">Saga Certification</text>
<text x="85" y="55" class="small">By Finnish Standards</text>

<text x="150" y="60" class="small">North American Welfur</text>
<text x="150" y="65" class="small">Mink and Fox Certification</text>
<text x="150" y="70" class="small">Programs in America</text>
<text x="150" y="75" class="small">and canada</text>

<text x="170" y="145" class="small">Wild Fur Program</text>
<text x="170" y="150" class="small">Covering Amaerican</text>
<text x="170" y="155" class="small">and Canadian</text>
<text x="170" y="160" class="small">Wild Fur</text>

<text x="65" y="190" class="small">Sable</text>
<text x="130" y="190" class="small">Swakara</text>

</g></g>
</svg>
