<svg id="Layer_1" data-name="Layer 1" xmlns="http://www.w3.org/2000/svg" viewBox="0 0 36.5 36.5"><defs><style>.cls-1{fill:#fff;}.cls-2{fill:#252525;}</style></defs><title>INSTA</title><circle class="cls-1" cx="18.25" cy="18.25" r="18.25"/><path class="cls-2" d="M9.4,15.4h5.27a4.64,4.64,0,0,0-.7,3.8,4.46,4.46,0,0,0,1.69,2.57,4.64,4.64,0,0,0,6.61-6.37h5.28c0,.07,0,.15,0,.23v7.95A3.57,3.57,0,0,1,24,27.13H13A3.58,3.58,0,0,1,9.4,23.57c0-2.65,0-5.29,0-7.93Z" transform="translate(0 0.25)"/><path class="cls-2" d="M14.15,8.87H24a3.57,3.57,0,0,1,3.54,3.48c0,.78,0,1.55,0,2.33,0,0,0,.08,0,.14H22a.54.54,0,0,1-.32-.13,4.66,4.66,0,0,0-6.37,0,.42.42,0,0,1-.24.12H9.42s0-.05,0-.07c0-.9,0-1.79,0-2.68a3.42,3.42,0,0,1,1.5-2.53v3.84h.72V9.44c0-.33,0-.33.33-.42l.2,0v4.4h.74V8.89h.5v4.48h.74m11.76-1.43V11a.57.57,0,0,0-.57-.59q-1,0-1.95,0a.55.55,0,0,0-.55.59q0,1,0,1.95a.55.55,0,0,0,.58.58h1.9a.56.56,0,0,0,.59-.58Z" transform="translate(0 0.25)"/><path class="cls-2" d="M18.46,14.5a3.58,3.58,0,1,1-3.58,3.59A3.58,3.58,0,0,1,18.46,14.5Zm0,.95a2.64,2.64,0,1,0,2.62,2.7A2.63,2.63,0,0,0,18.49,15.45Z" transform="translate(0 0.25)"/></svg>