<svg id="Layer_1" data-name="Layer 1" xmlns="http://www.w3.org/2000/svg" viewBox="0 0 36.5 36.5"><defs><style>.cls-1{fill:#fff;}.cls-2{fill:#252525;}</style></defs><title>Linked</title><circle class="cls-1" cx="18.25" cy="18.25" r="18.25"/><path class="cls-2" d="M11.23,13.94a.86.86,0,0,0,0,.15V24.4c0,.13,0,.17.17.17,1.06,0,2.13,0,3.2,0h.15V13.94ZM13,12.48c.11,0,.28,0,.44-.05a1.71,1.71,0,0,0,1.44-1.3,1.75,1.75,0,0,0-.57-1.88,2.09,2.09,0,0,0-1.66-.43,1.83,1.83,0,0,0-1.48,2.65A1.89,1.89,0,0,0,13,12.48Z" transform="translate(0 0.25)"/><path class="cls-2" d="M27.5,24.58H24v-.21c0-1.9,0-3.79,0-5.69a3,3,0,0,0-.25-1.25,1.52,1.52,0,0,0-1.53-1,1.88,1.88,0,0,0-1.83,1.4,3.07,3.07,0,0,0-.09.86c0,1.87,0,3.74,0,5.62v.2H16.72V13.94h3.52v1.48l.11-.14a3.5,3.5,0,0,1,3.11-1.6,4.08,4.08,0,0,1,2.12.56A3.6,3.6,0,0,1,27.05,16a5.8,5.8,0,0,1,.42,1.83l0,.2Z" transform="translate(0 0.25)"/><path class="cls-2" d="M11.23,13.94h3.51V24.56h-.15c-1.07,0-2.14,0-3.2,0-.14,0-.17,0-.17-.17V14.09A.86.86,0,0,1,11.23,13.94Z" transform="translate(0 0.25)"/><path class="cls-2" d="M13,12.48a1.89,1.89,0,0,1-1.83-1,1.83,1.83,0,0,1,1.48-2.65,2.09,2.09,0,0,1,1.66.43,1.75,1.75,0,0,1,.57,1.88,1.71,1.71,0,0,1-1.44,1.3C13.31,12.46,13.14,12.47,13,12.48Z" transform="translate(0 0.25)"/></svg>