<svg xmlns="http://www.w3.org/2000/svg" viewBox="0 0 18.432 17.642">
  <defs>
    <style>
      .cls-1 {
        fill: #cb297b;
      }
    </style>
  </defs>
  <path id="Shape_1_copy_25" data-name="Shape 1 copy 25" class="cls-1" d="M742.606,8212.817a8.821,8.821,0,0,1,.006-17.642h0a8.723,8.723,0,0,1,3.582.765.745.745,0,1,1-.606,1.36,7.306,7.306,0,0,0-2.976-.635h0a7.331,7.331,0,0,0,0,14.661h0a7.329,7.329,0,0,0,7.323-7.325v-.752a.744.744,0,1,1,1.488,0V8204a8.817,8.817,0,0,1-8.811,8.815Zm-.521-6.674-2.42-2.424a.745.745,0,0,1,1.053-1.054l1.894,1.895,8.348-8.354a.745.745,0,1,1,1.053,1.053l-8.875,8.884a.748.748,0,0,1-1.053,0Z" transform="translate(-733.799 -8195.176)"/>
</svg>
