<svg xmlns="http://www.w3.org/2000/svg" viewBox="0 0 16.754 12.755">
  <defs>
    <style>
      .cls-1 {
        fill: #737373;
      }
    </style>
  </defs>
  <path id="Shape_1" data-name="Shape 1" class="cls-1" d="M118.33,14074.967a2.05,2.05,0,0,1-2.049-2.049v-8.657a2.05,2.05,0,0,1,2.049-2.049h12.66a2.048,2.048,0,0,1,2.045,2.052v8.654a2.05,2.05,0,0,1-2.049,2.049Zm-1.113-10.7v8.654a1.115,1.115,0,0,0,1.113,1.113h12.66a1.113,1.113,0,0,0,1.113-1.113h0v-8.654a1.112,1.112,0,0,0-1.113-1.112H118.33A1.115,1.115,0,0,0,117.218,14064.264Zm13.1,8.807-4.168-3.96-1.166,1.046a.465.465,0,0,1-.314.123.46.46,0,0,1-.311-.12l-1.137-1.014-4.189,3.921a.484.484,0,0,1-.321.124.476.476,0,0,1-.343-.148.469.469,0,0,1,.021-.661l4.129-3.867-4.147-3.709a.469.469,0,0,1,.625-.7l4.486,4.017c.025.021.049.043.074.067,0,0,0,0,.007.011l1.1.981,5.652-5.072a.468.468,0,1,1,.625.7l-4.1,3.677,4.115,3.91a.469.469,0,0,1,.018.661.477.477,0,0,1-.339.148A.459.459,0,0,1,130.319,14073.07Z" transform="translate(-116.281 -14062.212)"/>
</svg>
