<svg id="Layer_1" data-name="Layer 1" xmlns="http://www.w3.org/2000/svg" viewBox="0 0 36.5 36.5"><defs><style>.cls-1{fill:#fff;}.cls-2{fill:#252525;}</style></defs><title>PINTRSt</title><circle class="cls-1" cx="18.25" cy="18.25" r="18.25"/><path class="cls-2" d="M19.14,7.64c.47.08.95.13,1.41.24A7.54,7.54,0,0,1,26,12.35a6.12,6.12,0,0,1,.48,2.28,10.94,10.94,0,0,1-1.16,5.47A6.43,6.43,0,0,1,22,23.34a5.56,5.56,0,0,1-2.85.39,3.37,3.37,0,0,1-2.59-1.54c-.15.59-.29,1.16-.43,1.73s-.25,1-.38,1.47a12.38,12.38,0,0,1-2.32,4.41.3.3,0,0,1-.24.12c-.07,0-.13-.15-.14-.24a15.18,15.18,0,0,1,.19-5.62c.48-2,1-3.93,1.44-5.89a.77.77,0,0,0,0-.4A4.39,4.39,0,0,1,15,13.56a2,2,0,0,1,2-.92,1.64,1.64,0,0,1,1.4,1.49A4.59,4.59,0,0,1,18.22,16c-.25.87-.54,1.73-.79,2.6a2.93,2.93,0,0,0-.1,1.41,2,2,0,0,0,2.13,1.54,3,3,0,0,0,2.34-1.28,8.08,8.08,0,0,0,1.42-3.65,9.33,9.33,0,0,0,.11-2.74A4.26,4.26,0,0,0,20,10.08a6.31,6.31,0,0,0-6.47,1.64,5.66,5.66,0,0,0-1.56,5.11,4.43,4.43,0,0,0,.68,1.58,1.5,1.5,0,0,1,.26.68,2.39,2.39,0,0,1-.39,1.31.35.35,0,0,1-.42.16,2.66,2.66,0,0,1-1.22-.67,4.61,4.61,0,0,1-1.21-2.27,7.36,7.36,0,0,1,3-8.15,9.71,9.71,0,0,1,4.92-1.79.71.71,0,0,0,.2,0Z" transform="translate(0.5 0.25)"/></svg>