<svg xmlns="http://www.w3.org/2000/svg" viewBox="0 0 40.646 40.491">
  <defs>
    <style>
      .cls-1 {
        fill: #cb297b;
      }
    </style>
  </defs>
  <path id="Forma_1" data-name="Forma 1" class="cls-1" d="M141.273,5456.226v-.683a4.764,4.764,0,0,1,4.742-4.773h6.1a4.763,4.763,0,0,1,4.742,4.773v.683Zm1.423-1.364H155.43a3.4,3.4,0,0,0-3.319-2.728h-6.1A3.4,3.4,0,0,0,142.7,5454.862Zm-24.432-2.586-.842-.848a4.2,4.2,0,0,1,0-5.9l.222-.222a4.148,4.148,0,0,1,1.925-1.1l1.969-.494a2.792,2.792,0,0,0,1.3-.739l6.143-6.184-.479-.482a2.06,2.06,0,0,1,0-2.894,2.024,2.024,0,0,1,2.874,0l.479.482,4.915-4.946a.51.51,0,0,0,0-.716l-1.082-1.088a1.317,1.317,0,0,1-.945.4h-.008a1.369,1.369,0,0,1-.964-.4l-.844-.851a1.523,1.523,0,0,0-1.186-1.192l-.73-.735a1.534,1.534,0,0,1,0-2.158l6-6.039a1.546,1.546,0,0,1,2.144,0l.73.734a1.525,1.525,0,0,1,.415.79,1.482,1.482,0,0,1,.771.4l.844.851a1.368,1.368,0,0,1-.012,1.94l6.718,6.739a1.345,1.345,0,0,1,1.917,0l.845.852a1.516,1.516,0,0,1,.414.776,1.5,1.5,0,0,1,.771.417l.731.735a1.535,1.535,0,0,1,0,2.157l-6,6.04a1.513,1.513,0,0,1-2.143,0l-.731-.735a1.528,1.528,0,0,1-.412-.778,1.5,1.5,0,0,1-.772-.415l-.845-.85a1.371,1.371,0,0,1,.012-1.942l-1.094-1.076a.5.5,0,0,0-.711,0l-4.915,4.946.479.483a2.055,2.055,0,0,1,0,2.894,2.072,2.072,0,0,1-2.873,0l-.479-.482-6.143,6.183a2.813,2.813,0,0,0-.734,1.3l-.493,1.983a4.161,4.161,0,0,1-1.09,1.938l-.22.224a4.128,4.128,0,0,1-5.865,0Zm11.193-17.9a.688.688,0,0,0,0,.966l1.436,1.445-7.1,7.148a4.126,4.126,0,0,1-1.925,1.1l-1.969.495a2.813,2.813,0,0,0-1.3.742l-.22.222a2.823,2.823,0,0,0,0,3.974l.842.848a2.8,2.8,0,0,0,1.973.823,2.768,2.768,0,0,0,1.976-.823l.219-.222a2.81,2.81,0,0,0,.735-1.305l.492-1.98a4.166,4.166,0,0,1,1.09-1.94l7.1-7.149,1.438,1.447a.687.687,0,0,0,.957,0,.686.686,0,0,0,0-.965l-1.436-1.446,5.872-5.91a1.854,1.854,0,0,1,2.628,0l1.082,1.088a1.393,1.393,0,0,1,.4.979,1.336,1.336,0,0,1-.4.951l.844.85a.162.162,0,0,0,.227,0h0l6-6.039a.159.159,0,0,0,.048-.115.154.154,0,0,0-.048-.114l-.845-.85a1.325,1.325,0,0,1-.949.4h-.008a1.344,1.344,0,0,1-.959-.4l-6.706-6.75a1.393,1.393,0,0,1-.4-.98,1.333,1.333,0,0,1,.4-.95l-.845-.851a.14.14,0,0,0-.226,0l-6,6.041a.158.158,0,0,0-.047.113.156.156,0,0,0,.047.115l.844.85a1.337,1.337,0,0,1,.95-.4h.008a1.338,1.338,0,0,1,.959.4l1.082,1.089a1.884,1.884,0,0,1,0,2.646l-5.872,5.909-1.436-1.446a.677.677,0,0,0-.959,0Zm21.92-3.743-6,6.04a.162.162,0,0,0,0,.229l.731.735a.139.139,0,0,0,.226,0l6-6.039a.163.163,0,0,0,.048-.116.158.158,0,0,0-.048-.114l-.73-.735a.162.162,0,0,0-.227,0Zm-13.414-13.5-6,6.037a.165.165,0,0,0,0,.23l.73.734a.159.159,0,0,0,.229,0l6-6.039a.162.162,0,0,0,0-.229l-.731-.734a.154.154,0,0,0-.114-.049A.153.153,0,0,0,137.963,5417.133Zm6.7,32.957a.68.68,0,1,1,0-1.36h8.8a.68.68,0,1,1,0,1.36Z" transform="translate(-116.207 -5415.735)"/>
</svg>
