<svg xmlns="http://www.w3.org/2000/svg" viewBox="0 0 39.968 39.968">
  <defs>
    <style>
      .cls-1 {
        fill: #cb297b;
      }
    </style>
  </defs>
  <path id="Shape_1" data-name="Shape 1" class="cls-1" d="M492.446,5306.973v-1.29h2.579v-2.578h-5.8a3.228,3.228,0,0,1-3.223-3.223v-21.919a3.23,3.23,0,0,1,2.579-3.158V5267h25.786v7.735h8.38a3.227,3.227,0,0,1,3.223,3.223v21.919a3.227,3.227,0,0,1-3.223,3.223h-5.8v2.578h2.578v1.29Zm3.868-1.29h19.34v-2.578h-19.34Zm-9.025-5.8a1.935,1.935,0,0,0,1.934,1.934h33.522a1.935,1.935,0,0,0,1.934-1.934v-.646h-37.39Zm0-21.919v19.985h37.39v-19.985a1.936,1.936,0,0,0-1.934-1.935h-7.807a4.5,4.5,0,0,1-.292,6.711l2.475,3.959a4.535,4.535,0,1,1-1.1.67l-1.653-2.646v4.2h-5.6a4.513,4.513,0,1,1-8.142,0H488.578v-12.775A1.934,1.934,0,0,0,487.289,5277.963Zm28.365,12.893a3.223,3.223,0,1,0,3.223-3.223A3.226,3.226,0,0,0,515.654,5290.856Zm-14.183,0a3.224,3.224,0,1,0,3.224-3.223A3.227,3.227,0,0,0,501.471,5290.856Zm5.59-3.836a4.648,4.648,0,0,1,.786.613h5.229v-4.057a4.5,4.5,0,0,1-3.785-.567Zm-17.193.613h11.675a4.478,4.478,0,0,1,4.33-1.128l2.435-4.379a4.576,4.576,0,0,1-.593-.939H491.157v-11.6h20.629v5.157a4.535,4.535,0,0,1,1.289.189v-6.635H489.868Zm18.7-8.38a3.223,3.223,0,1,0,3.223-3.225A3.227,3.227,0,0,0,508.563,5279.253Zm-16.117.645h14.878a4.7,4.7,0,0,1-.051-.645,4.521,4.521,0,0,1,3.223-4.324v-4.057H492.446Zm10.964,6.442v-1.29H504.7v1.29Zm-12.251,0v-1.29h10.96v1.29Zm0-2.569v-1.291H504.7v1.291Z" transform="translate(-486 -5267.005)"/>
</svg>
