<svg xmlns="http://www.w3.org/2000/svg" viewBox="0 0 39.294 41.042">
  <defs>
    <style>
      .cls-1 {
        fill: #cb297b;
      }
    </style>
  </defs>
  <path id="Forma_1" data-name="Forma 1" class="cls-1" d="M145.035,5308.018a.716.716,0,0,1-.7-.585l-.2-1.04a1.4,1.4,0,0,0-.87-1.053,1.38,1.38,0,0,0-1.347.177l-.882.654a.714.714,0,0,1-.928-.073l-1.4-1.411a.724.724,0,0,1-.087-.913l.589-.876a1.405,1.405,0,0,0,.125-1.364,1.387,1.387,0,0,0-1.078-.835l-1.083-.168a.718.718,0,0,1-.6-.71v-2a.719.719,0,0,1,.579-.707l1.031-.2a1.384,1.384,0,0,0,1.044-.875,1.4,1.4,0,0,0-.175-1.357l-.649-.89a.726.726,0,0,1,.072-.937l1.4-1.409a.711.711,0,0,1,.906-.088l1.123.767a1.371,1.371,0,0,0,1.328.135,1.4,1.4,0,0,0,.845-1.042l.254-1.343a.717.717,0,0,1,.7-.583h1.98a.713.713,0,0,1,.7.609l.167,1.092a1.391,1.391,0,0,0,.829,1.084,1.369,1.369,0,0,0,1.353-.125l.87-.594a.711.711,0,0,1,.906.088l1.4,1.409a.723.723,0,0,1,.071.936l-.647.89a1.4,1.4,0,0,0-.174,1.357,1.383,1.383,0,0,0,1.044.874l1.031.2a.722.722,0,0,1,.581.708v1.995a.719.719,0,0,1-.606.711l-1.082.168a1.385,1.385,0,0,0-1.078.834,1.4,1.4,0,0,0,.125,1.364l.589.878a.724.724,0,0,1-.087.913l-1.4,1.411a.709.709,0,0,1-.928.07l-.621-.458a1.392,1.392,0,0,0-1.372-.168,1.408,1.408,0,0,0-.853,1.1l-.117.768a.716.716,0,0,1-.706.611ZM143.788,5304a2.833,2.833,0,0,1,1.75,2.122l.087.453h.775l.024-.154a2.83,2.83,0,0,1,1.718-2.206,2.8,2.8,0,0,1,2.764.334l.127.093.548-.553-.257-.384a2.863,2.863,0,0,1-.252-2.747,2.83,2.83,0,0,1,2.169-1.684l.477-.073v-.781l-.452-.088a2.83,2.83,0,0,1-2.1-1.764,2.86,2.86,0,0,1,.353-2.736l.284-.392-.548-.552-.381.26a2.808,2.808,0,0,1-2.726.255,2.848,2.848,0,0,1-1.671-2.186l-.073-.481h-.775l-.144.758a2.853,2.853,0,0,1-1.7,2.1,2.813,2.813,0,0,1-2.676-.276l-.635-.433-.549.552.285.392a2.868,2.868,0,0,1,.353,2.736,2.827,2.827,0,0,1-2.1,1.764l-.453.088v.781l.477.073a2.823,2.823,0,0,1,2.169,1.683,2.865,2.865,0,0,1-.252,2.748l-.257.382.549.554.388-.287a2.809,2.809,0,0,1,2.715-.355Zm-13.7,2.44c-6.515-.492-13.34-2.542-14.154-6.021a.681.681,0,0,1-.081-.322v-26.642a.71.71,0,0,1,.1-.352c.827-3.089,6.984-6.128,17.756-6.128s16.93,3.039,17.757,6.128a.711.711,0,0,1,.1.352v14.4a.714.714,0,1,1-1.428,0v-2.669c-.182.167-.377.329-.593.49-2.7,2.037-8.07,3.619-15.839,3.619-7.8,0-13.181-1.594-15.872-3.647-.179-.133-.337-.27-.493-.408-.021-.019-.047-.036-.067-.055v5.908a1.5,1.5,0,0,0,.057.349,1.875,1.875,0,0,0,.083.26c.029.071.064.143.1.215a2.624,2.624,0,0,0,.164.265c.047.065.1.133.156.2.08.093.164.189.26.281.059.058.123.113.185.172.117.1.24.2.377.305.059.044.121.086.183.129.163.113.33.225.516.333.049.032.1.057.152.086.213.121.434.243.675.358l.093.045c.268.126.549.253.847.373a.115.115,0,0,0,.027.009,27.606,27.606,0,0,0,6.116,1.564l.036,0q.705.1,1.448.187c.081.009.165.013.248.022.432.045.869.088,1.319.119.206.016.422.025.631.037.338.02.673.042,1.02.056.567.019,1.147.031,1.737.031a.72.72,0,0,1,0,1.44c-7.8,0-13.181-1.593-15.872-3.646-.179-.132-.337-.269-.493-.408-.021-.019-.047-.036-.067-.055v6.059a.568.568,0,0,1,.023.093c.324,1.99,4.952,4.425,12.891,5.027a.72.72,0,0,1-.053,1.438A.391.391,0,0,1,130.089,5306.441Zm-12.807-23.984a1.5,1.5,0,0,0,.057.348,1.776,1.776,0,0,0,.083.26,2.12,2.12,0,0,0,.1.213,2.392,2.392,0,0,0,.164.266c.047.067.1.133.156.2a3.319,3.319,0,0,0,.26.281c.059.057.123.113.185.17.117.1.24.207.377.308.059.042.121.086.183.129.163.112.33.223.516.333.049.029.1.058.152.087.213.12.434.24.675.357.031.016.063.028.093.045.268.127.549.251.847.374l.027.009a27.665,27.665,0,0,0,6.116,1.563l.036,0c.47.069.952.133,1.448.188.081.009.165.013.248.022.432.045.869.088,1.319.12.206.016.422.024.631.036.338.02.673.042,1.02.056q.851.031,1.737.032c.591,0,1.17-.011,1.738-.029.346-.015.682-.036,1.02-.056.209-.012.425-.02.631-.036.449-.033.887-.075,1.319-.12l.248-.024q.741-.08,1.447-.185c.012,0,.025,0,.037-.007a27.461,27.461,0,0,0,6.116-1.56.176.176,0,0,1,.025-.009c.3-.123.579-.248.847-.376.032-.013.064-.029.095-.045.24-.117.464-.234.675-.355l.152-.086c.185-.111.353-.221.514-.334.063-.042.125-.085.184-.129.137-.1.258-.2.376-.306.065-.059.128-.113.187-.169a3.481,3.481,0,0,0,.258-.284c.056-.066.109-.132.157-.2a2.449,2.449,0,0,0,.164-.265c.039-.072.073-.143.1-.213a1.72,1.72,0,0,0,.083-.263,1.5,1.5,0,0,0,.057-.348v-5.911c-.087.08-.184.156-.277.234-.052.044-.1.088-.153.13-.214.169-.445.336-.7.5-.052.033-.111.067-.165.1-.209.132-.432.262-.666.388-.085.046-.173.093-.262.14-.261.133-.534.263-.822.389l-.137.064c-.336.143-.691.277-1.062.41-.1.039-.209.071-.314.108-.294.1-.6.2-.914.289l-.341.1c-.418.117-.85.228-1.3.329-.063.015-.129.028-.192.041-.4.088-.814.169-1.24.244-.144.027-.29.052-.438.075-.4.068-.822.131-1.25.187-.111.014-.214.031-.326.044-.532.065-1.082.12-1.647.168-.14.012-.285.019-.426.031-.453.032-.914.059-1.387.083-.173.007-.345.015-.52.02-.617.022-1.244.037-1.894.037s-1.278-.015-1.893-.037c-.176-.005-.346-.012-.52-.02q-.709-.036-1.387-.083c-.141-.011-.286-.019-.426-.031-.566-.048-1.115-.1-1.647-.168-.111-.013-.217-.03-.326-.044-.428-.056-.846-.119-1.251-.187-.147-.022-.293-.048-.437-.075-.426-.074-.841-.156-1.24-.244-.063-.013-.131-.026-.192-.041-.453-.1-.885-.212-1.3-.329-.116-.033-.228-.068-.341-.1-.316-.093-.619-.19-.914-.289-.105-.037-.212-.069-.314-.108-.37-.132-.727-.268-1.062-.41l-.137-.064q-.432-.19-.822-.389c-.091-.046-.177-.093-.264-.14-.233-.125-.456-.256-.666-.388-.053-.033-.112-.067-.164-.1-.252-.165-.482-.332-.7-.5-.055-.042-.1-.086-.153-.13-.093-.079-.19-.154-.277-.234Zm0-8.64c0,2.555,6.749,5.4,16.432,5.4s16.433-2.844,16.433-5.4-6.749-5.4-16.433-5.4S117.281,5271.262,117.281,5273.817Zm25.006,24.84a3.572,3.572,0,1,1,3.573,3.6A3.589,3.589,0,0,1,142.287,5298.657Zm1.429,0a2.143,2.143,0,1,0,2.143-2.161A2.154,2.154,0,0,0,143.716,5298.657Z" transform="translate(-115.853 -5266.976)"/>
</svg>
