<svg xmlns="http://www.w3.org/2000/svg" viewBox="0 0 38.208 38.208">
  <defs>
    <style>
      .cls-1 {
        fill: #cb297b;
      }
    </style>
  </defs>
  <path id="Forma_1" data-name="Forma 1" class="cls-1" d="M488.379,5456.207a2.5,2.5,0,0,1-2.491-2.494V5420.49a2.494,2.494,0,0,1,2.491-2.492H521.6a2.5,2.5,0,0,1,2.492,2.492v33.223a2.5,2.5,0,0,1-2.492,2.494Zm-1.273-35.716v33.223c0,.458.818,1.166,1.273,1.166H521.6c.456,0,.83-.708.83-1.166h.445V5420.49c0-.457-.819-1.386-1.275-1.386H488.379C487.923,5419.1,487.105,5420.033,487.105,5420.49Zm4.6,30.73h-.131l-.014,0h-.005l-.016,0h0a.819.819,0,0,1-.6-.507l0-.007,0,0a.828.828,0,0,1-.054-.295v-9.97a.83.83,0,0,1,1.66,0v7.97l10.214-10.212a.83.83,0,0,1,1.174,1.173l-10.208,10.21h7.961a.83.83,0,0,1,0,1.661Zm14.363-15.192a.829.829,0,0,1,0-1.174l10.211-10.212h-7.963a.83.83,0,0,1,0-1.661h9.966a.833.833,0,0,1,.833.833c0,.022,0,.045,0,.067v9.9a.83.83,0,0,1-1.66,0v-7.961l-10.21,10.21a.834.834,0,0,1-1.175,0Z" transform="translate(-485.888 -5417.998)"/>
</svg>
