<svg xmlns="http://www.w3.org/2000/svg" viewBox="0 0 38 38">
  <defs>
    <style>
      .cls-1 {
        fill: #cb297b;
      }
    </style>
  </defs>
  <path id="Forma_1" data-name="Forma 1" class="cls-1" d="M905.174,5420H878.739a.826.826,0,0,0-.826.827v9.087h-9.087a.826.826,0,0,0-.826.826v24.782a2.481,2.481,0,0,0,2.478,2.479H890.3a.828.828,0,0,0,.584-.242l4.956-4.957a.823.823,0,0,0,.242-.584v-4.131h7.435a2.481,2.481,0,0,0,2.478-2.479v-24.781A.826.826,0,0,0,905.174,5420Zm-10.739,31.876-4.472,4.472h-.484v-4.956h4.957Zm0-2.136h-5.783a.826.826,0,0,0-.826.825v5.782H870.478c-.455,0-1.51-.369-1.51-.826v-19.428h25.466Zm0-14.87H868.968v-3.873h25.466Zm9.913,10.738a.827.827,0,0,1-.826.827h-7.435v-15.7a.826.826,0,0,0-.826-.826h-15.7v-3.3h24.783Zm0-20.652H879.565v-3.3h24.783Z" transform="translate(-868 -5419.998)"/>
</svg>
