<svg xmlns="http://www.w3.org/2000/svg" viewBox="0 0 29.858 34.514">
  <defs>
    <style>
      .cls-1 {
        fill: rgba(0,0,0,0);
        stroke-linejoin: round;
      }

      .cls-2, .cls-3 {
        stroke: none;
      }

      .cls-3 {
        fill: #fff;
      }
    </style>
  </defs>
  <g id="Forma_1" data-name="Forma 1" class="cls-1" transform="translate(-296.356 -3715.02)">
    <path class="cls-2" d="M 301.049072265625 3748.53369140625 C 300.9634094238281 3748.53369140625 300.8794860839844 3748.53271484375 300.7980346679688 3748.53173828125 C 300.7292785644531 3748.53076171875 300.6624755859375 3748.530029296875 300.5982055664063 3748.530029296875 C 298.9353332519531 3748.530029296875 298.1400451660156 3747.740966796875 297.7656555175781 3747.0791015625 C 297.3558044433594 3746.3544921875 297.3558654785156 3745.603271484375 297.3558959960938 3745.3564453125 L 297.3558959960938 3719.2021484375 L 297.3558959960938 3719.196533203125 C 297.3558654785156 3718.913330078125 297.3558044433594 3718.161376953125 297.7693786621094 3717.44287109375 C 298.1419372558594 3716.79541015625 298.9351196289063 3716.023681640625 300.5982055664063 3716.023681640625 C 300.6631469726563 3716.023681640625 300.7306518554688 3716.022705078125 300.8001708984375 3716.02197265625 C 300.8827209472656 3716.02099609375 300.9678039550781 3716.019775390625 301.0546569824219 3716.019775390625 C 301.6593322753906 3716.019775390625 302.3656005859375 3716.072509765625 303.0194702148438 3716.46240234375 L 303.0298461914063 3716.46875 L 303.0401000976563 3716.47509765625 L 323.3389587402344 3729.261962890625 C 324.9613037109375 3730.23193359375 325.2821350097656 3731.51708984375 325.2062683105469 3732.27685546875 C 325.2820129394531 3733.036865234375 324.9612121582031 3734.32177734375 323.3390502929688 3735.2919921875 L 303.0400695800781 3748.077880859375 L 303.0297546386719 3748.084228515625 L 303.0192565917969 3748.090576171875 C 302.3643493652344 3748.481201171875 301.6558227539063 3748.53369140625 301.049072265625 3748.53369140625 Z"/>
    <path class="cls-3" d="M 301.0546264648438 3717.019775390625 C 300.8943176269531 3717.019775390625 300.7404479980469 3717.023681640625 300.5982055664063 3717.023681640625 C 298.3458862304688 3717.023681640625 298.3558959960938 3718.76220703125 298.3558959960938 3719.2021484375 L 298.3558959960938 3745.351806640625 C 298.3558959960938 3745.723876953125 298.3460083007813 3747.530029296875 300.5982055664063 3747.530029296875 C 300.73876953125 3747.530029296875 300.8908386230469 3747.53369140625 301.049072265625 3747.53369140625 C 301.5245971679688 3747.53369140625 302.0567626953125 3747.500244140625 302.5071105957031 3747.231689453125 L 322.8161010742188 3734.439453125 C 324.4830017089844 3733.447998046875 324.1950073242188 3732.27685546875 324.1950073242188 3732.27685546875 C 324.1950073242188 3732.27685546875 324.4831848144531 3731.10595703125 322.8161926269531 3730.114501953125 L 302.5071105957031 3717.3212890625 C 302.0585021972656 3717.0537109375 301.5286560058594 3717.019775390625 301.0546264648438 3717.019775390625 M 301.0539855957031 3715.019775390625 L 301.0539855957031 3717.019775390625 L 301.0541687011719 3715.019775390625 C 301.7522583007813 3715.019775390625 302.6643371582031 3715.086181640625 303.5317993164063 3715.603759765625 C 303.5456848144531 3715.612060546875 303.5594482421875 3715.620361328125 303.5730895996094 3715.629150390625 L 323.8624572753906 3728.409912109375 C 325.2393188476563 3729.236328125 325.802001953125 3730.243896484375 326.0315551757813 3730.945556640625 C 326.2051086425781 3731.475830078125 326.2293090820313 3731.93896484375 326.2075500488281 3732.277099609375 C 326.2292785644531 3732.614990234375 326.2050170898438 3733.077880859375 326.0314636230469 3733.6083984375 C 325.8018798828125 3734.309814453125 325.2390747070313 3735.317626953125 323.8623046875 3736.14404296875 L 303.5730285644531 3748.924072265625 C 303.5592651367188 3748.9326171875 303.5453796386719 3748.941162109375 303.5314025878906 3748.949462890625 C 302.6629638671875 3749.46728515625 301.7486267089844 3749.53369140625 301.049072265625 3749.53369140625 C 300.9591979980469 3749.53369140625 300.87109375 3749.53271484375 300.78564453125 3749.53173828125 C 300.7211303710938 3749.53076171875 300.6584777832031 3749.530029296875 300.5982055664063 3749.530029296875 C 298.3401794433594 3749.530029296875 297.3089599609375 3748.302978515625 296.8952331542969 3747.571533203125 C 296.3557434082031 3746.61767578125 296.3558654785156 3745.66845703125 296.3558959960938 3745.3564453125 L 296.3558959960938 3719.2021484375 L 296.3558959960938 3719.196533203125 C 296.3558654785156 3718.87451171875 296.3557739257813 3717.894287109375 296.9026184082031 3716.944091796875 C 297.3153381347656 3716.226806640625 298.3442687988281 3715.023681640625 300.5982055664063 3715.023681640625 C 300.6589660644531 3715.023681640625 300.7221374511719 3715.022705078125 300.7872009277344 3715.02197265625 C 300.8737182617188 3715.02099609375 300.9629211425781 3715.019775390625 301.0539855957031 3715.019775390625 Z"/>
  </g>
</svg>
