<svg id="Layer_1" data-name="Layer 1" xmlns="http://www.w3.org/2000/svg" viewBox="0 0 36.5 36.5"><defs><style>.cls-1{fill:#fff;}.cls-2{fill:#252525;}</style></defs><title>YOU</title><circle class="cls-1" cx="18.25" cy="18.25" r="18.25"/><path class="cls-2" d="M9,19.91c0-.17.07-.34.12-.5a3.41,3.41,0,0,1,2.34-2.48,4,4,0,0,1,1.14-.16h13a3.48,3.48,0,0,1,2.82,1.32,3.2,3.2,0,0,1,.76,2c0,1.15.05,2.31,0,3.46a3.34,3.34,0,0,1-1.67,2.79,3.51,3.51,0,0,1-1.92.52h-13a3.51,3.51,0,0,1-3-1.54A3.33,3.33,0,0,1,9,24L9,23.71Zm11.49-1.79h-1c-.14,0-.19,0-.19.19q0,3.45,0,6.9v.18h1.2v-.47c.19.14.36.27.54.38a.91.91,0,0,0,1.46-.68c0-.07,0-.14,0-.21,0-1.08,0-2.17,0-3.25,0-.15,0-.3,0-.45a.85.85,0,0,0-1-.79,1.68,1.68,0,0,0-.84.42l-.17.14ZM18,25.38V23.56c0-1.14,0-2.28,0-3.42,0-.14,0-.18-.18-.18H17c-.21,0-.21,0-.21.21v4c0,.06,0,.16,0,.18a1.11,1.11,0,0,1-.38.18c-.24.06-.38-.05-.4-.3V24c0-1.3,0-2.6,0-3.9,0-.13,0-.18-.17-.18H15c-.15,0-.19,0-.19.19,0,1.35,0,2.71,0,4.06,0,.19,0,.38,0,.57a.64.64,0,0,0,.34.53,1,1,0,0,0,1.09,0c.19-.11.37-.24.56-.37l.1.44ZM25,22.86h1.88c.09,0,.16,0,.16-.12,0-.52,0-1,0-1.55a1.2,1.2,0,0,0-.8-1.13A2.28,2.28,0,0,0,24.84,20a1.25,1.25,0,0,0-1.09,1.22c0,.36,0,.72,0,1.08,0,.64,0,1.28,0,1.91a1.24,1.24,0,0,0,.77,1.14,2.23,2.23,0,0,0,1.25.11c1.08-.17,1.34-1,1.18-1.92H25.8v.18c0,.19,0,.37,0,.56a.37.37,0,0,1-.4.34c-.25,0-.42-.1-.43-.32C24.94,23.8,25,23.34,25,22.86Zm-12.9-3.8v6.32h1.28V19.25c0-.15,0-.2.19-.19s.6,0,.9,0c.11,0,.15,0,.15-.14s0-.41,0-.62,0-.19-.19-.19H10.86c0,.26,0,.5,0,.74s0,.21.2.2Z" transform="translate(-0.5 0.25)"/><path class="cls-2" d="M24.16,15.19l-.63.41a1.12,1.12,0,0,1-1.31-.12A1,1,0,0,1,22,15a3.25,3.25,0,0,1-.05-.7V9.91c0-.15,0-.2.19-.2h.94c.14,0,.18,0,.18.18,0,1.42,0,2.84,0,4.26v.23c0,.36.22.5.56.38a1.11,1.11,0,0,0,.32-.18c.05,0,.05-.12.05-.19,0-1.49,0-3,0-4.47V9.73h1.29v5.95h-.88c-.32,0-.32,0-.37-.31l0-.14A.05.05,0,0,0,24.16,15.19Z" transform="translate(-0.5 0.25)"/><path class="cls-2" d="M15.34,15.67H14c0-.06,0-.11,0-.17,0-1,0-2,0-2.94a3.24,3.24,0,0,0-.26-1c-.41-1.25-.83-2.51-1.25-3.76a1.55,1.55,0,0,1,0-.15h1c.16,0,.36,0,.45,0s.1.28.14.43c.19.78.39,1.57.58,2.36a.51.51,0,0,0,.08.17.5.5,0,0,0,.05-.13c.22-.89.44-1.79.65-2.69,0-.13.09-.18.23-.18h1.29c-.14.42-.28.83-.41,1.24-.36,1.06-.71,2.12-1.06,3.19a1.5,1.5,0,0,0-.08.47c0,1,0,1.93,0,2.89Z" transform="translate(-0.5 0.25)"/><path class="cls-2" d="M20.54,12.7c0,.52,0,1,0,1.56a1.41,1.41,0,0,1-1.31,1.46,2.58,2.58,0,0,1-1.4-.14A1.34,1.34,0,0,1,17,14.4a4.87,4.87,0,0,1,0-.54c0-.82,0-1.64,0-2.46a2.7,2.7,0,0,1,.13-.85,1.19,1.19,0,0,1,.87-.8,2.49,2.49,0,0,1,1.76.09A1.25,1.25,0,0,1,20.52,11c0,.57,0,1.13,0,1.7Zm-1.29,0h0c0-.57,0-1.14,0-1.71a.46.46,0,0,0-.91,0,1.53,1.53,0,0,0,0,.3v2.87a1.53,1.53,0,0,0,0,.3.41.41,0,0,0,.48.35.42.42,0,0,0,.43-.41,2.45,2.45,0,0,0,0-.27Z" transform="translate(-0.5 0.25)"/><path class="cls-2" d="M20.47,22.68c0,.48,0,1,0,1.43a.38.38,0,0,0,.27.41c.35.16.57,0,.58-.35V21.28a1.62,1.62,0,0,0,0-.22.28.28,0,0,0-.33-.28,1.61,1.61,0,0,0-.29.09.34.34,0,0,0-.22.37C20.48,21.72,20.47,22.2,20.47,22.68Z" transform="translate(-0.5 0.25)"/><path class="cls-2" d="M25.79,22.07c0-.33,0-.64,0-.95s-.17-.33-.41-.34-.42.1-.44.32,0,.64,0,1Z" transform="translate(-0.5 0.25)"/><path class="cls-2" d="M20.47,22.68c0-.48,0-1,0-1.44a.34.34,0,0,1,.22-.37,1.61,1.61,0,0,1,.29-.09.28.28,0,0,1,.33.28,1.62,1.62,0,0,1,0,.22v2.89c0,.38-.23.51-.58.35a.38.38,0,0,1-.27-.41C20.48,23.64,20.47,23.16,20.47,22.68Z" transform="translate(-0.5 0.25)"/><path class="cls-2" d="M25.79,22.07h-.85c0-.33,0-.65,0-1s.19-.33.44-.32.39.12.41.34S25.79,21.74,25.79,22.07Z" transform="translate(-0.5 0.25)"/></svg>